{
  "accessors": [
    {
      "bufferView": 2,
      "componentType": 5126,
      "count": 10946,
      "max": [
        5287.828125,
        1378.0,
        -1245.7939453125
      ],
      "min": [
        725.828125,
        -363.0,
        -5196.60205078125
      ],
      "type": "VEC3"
    },
    {
      "bufferView": 2,
      "byteOffset": 131352,
      "componentType": 5126,
      "count": 10946,
      "max": [
        1.0,
        1.0,
        1.0
      ],
      "min": [
        -1.0,
        -1.0,
        -1.0
      ],
      "type": "VEC3"
    },
    {
      "bufferView": 1,
      "componentType": 5126,
      "count": 10946,
      "max": [
        260.2381591796875,
        221.48316955566406
      ],
      "min": [
        -252.1077117919922,
        -206.86976623535156
      ],
      "type": "VEC2"
    },
    {
      "bufferView": 1,
      "byteOffset": 87568,
      "componentType": 5126,
      "count": 10946,
      "max": [
        260.2381591796875,
        221.48316955566406
      ],
      "min": [
        -252.1077117919922,
        -206.86976623535156
      ],
      "type": "VEC2"
    },
    {
      "bufferView": 1,
      "byteOffset": 175136,
      "componentType": 5126,
      "count": 10946,
      "max": [
        260.2381591796875,
        221.48316955566406
      ],
      "min": [
        -252.1077117919922,
        -206.86976623535156
      ],
      "type": "VEC2"
    },
    {
      "bufferView": 1,
      "byteOffset": 262704,
      "componentType": 5126,
      "count": 10946,
      "max": [
        260.2381591796875,
        221.48316955566406
      ],
      "min": [
        -252.1077117919922,
        -206.86976623535156
      ],
      "type": "VEC2"
    },
    {
      "bufferView": 1,
      "byteOffset": 350272,
      "componentType": 5126,
      "count": 10946,
      "max": [
        260.2381591796875,
        221.48316955566406
      ],
      "min": [
        -252.1077117919922,
        -206.86976623535156
      ],
      "type": "VEC2"
    },
    {
      "bufferView": 1,
      "byteOffset": 437840,
      "componentType": 5126,
      "count": 10946,
      "max": [
        260.2381591796875,
        221.48316955566406
      ],
      "min": [
        -252.1077117919922,
        -206.86976623535156
      ],
      "type": "VEC2"
    },
    {
      "bufferView": 1,
      "byteOffset": 525408,
      "componentType": 5126,
      "count": 10946,
      "max": [
        260.2381591796875,
        221.48316955566406
      ],
      "min": [
        -252.1077117919922,
        -206.86976623535156
      ],
      "type": "VEC2"
    },
    {
      "bufferView": 1,
      "byteOffset": 612976,
      "componentType": 5126,
      "count": 10946,
      "max": [
        260.2381591796875,
        221.48316955566406
      ],
      "min": [
        -252.1077117919922,
        -206.86976623535156
      ],
      "type": "VEC2"
    },
    {
      "bufferView": 1,
      "byteOffset": 700544,
      "componentType": 5126,
      "count": 10946,
      "max": [
        260.2381591796875,
        221.48316955566406
      ],
      "min": [
        -252.1077117919922,
        -206.86976623535156
      ],
      "type": "VEC2"
    },
    {
      "bufferView": 1,
      "byteOffset": 788112,
      "componentType": 5126,
      "count": 10946,
      "max": [
        260.2381591796875,
        221.48316955566406
      ],
      "min": [
        -252.1077117919922,
        -206.86976623535156
      ],
      "type": "VEC2"
    },
    {
      "bufferView": 0,
      "componentType": 5125,
      "count": 22122,
      "type": "SCALAR"
    }
  ],
  "asset": {
    "extras": {
      "author": "Trockk (https://sketchfab.com/Timrockk)",
      "license": "CC-BY-4.0 (http://creativecommons.org/licenses/by/4.0/)",
      "source": "https://sketchfab.com/3d-models/ufo-patroller-a0e8355c267d47ebbcb0d340ed11055e",
      "title": "Ufo Patroller"
    },
    "generator": "Sketchfab-13.31.0",
    "version": "2.0"
  },
  "bufferViews": [
    {
      "buffer": 0,
      "byteLength": 88488,
      "name": "floatBufferViews",
      "target": 34963
    },
    {
      "buffer": 0,
      "byteLength": 875680,
      "byteOffset": 88488,
      "byteStride": 8,
      "name": "floatBufferViews",
      "target": 34962
    },
    {
      "buffer": 0,
      "byteLength": 262704,
      "byteOffset": 964168,
      "byteStride": 12,
      "name": "floatBufferViews",
      "target": 34962
    }
  ],
  "buffers": [
    {
      "byteLength": 1226872,
      "uri": "scene.bin"
    }
  ],
  "materials": [
    {
      "doubleSided": true,
      "name": "FrontColor",
      "pbrMetallicRoughness": {
        "metallicFactor": 0.0,
        "roughnessFactor": 0.9302134966129227
      }
    }
  ],
  "meshes": [
    {
      "name": "Mesh1_FrontColor_0",
      "primitives": [
        {
          "attributes": {
            "NORMAL": 1,
            "POSITION": 0,
            "TEXCOORD_0": 2,
            "TEXCOORD_1": 3,
            "TEXCOORD_2": 4,
            "TEXCOORD_3": 5,
            "TEXCOORD_4": 6,
            "TEXCOORD_5": 7,
            "TEXCOORD_6": 8,
            "TEXCOORD_7": 9,
            "TEXCOORD_8": 10,
            "TEXCOORD_9": 11
          },
          "indices": 12,
          "material": 0,
          "mode": 4
        }
      ]
    }
  ],
  "nodes": [
    {
      "children": [
        1
      ],
      "matrix": [
        1.0,
        0.0,
        0.0,
        0.0,
        0.0,
        2.220446049250313e-16,
        -1.0,
        0.0,
        0.0,
        1.0,
        2.220446049250313e-16,
        0.0,
        0.0,
        0.0,
        0.0,
        1.0
      ],
      "name": "Sketchfab_model"
    },
    {
      "children": [
        2
      ],
      "matrix": [
        0.009999999776482582,
        0.0,
        0.0,
        0.0,
        0.0,
        0.0,
        0.009999999776482582,
        0.0,
        0.0,
        -0.009999999776482582,
        0.0,
        0.0,
        0.0,
        0.0,
        0.0,
        1.0
      ],
      "name": "3b0dd7c1d1c6470487f2d997d4a6c537.fbx"
    },
    {
      "children": [
        3
      ],
      "name": "RootNode"
    },
    {
      "children": [
        4
      ],
      "name": "Model"
    },
    {
      "children": [
        5
      ],
      "name": "Mesh1"
    },
    {
      "mesh": 0,
      "name": "Mesh1_FrontColor_0"
    }
  ],
  "scene": 0,
  "scenes": [
    {
      "name": "Sketchfab_Scene",
      "nodes": [
        0
      ]
    }
  ]
}
